<?xml version="1.0" standalone="no"?>
<!DOCTYPE svg PUBLIC "-//W3C//DTD SVG 20010904//EN"
 "http://www.w3.org/TR/2001/REC-SVG-20010904/DTD/svg10.dtd">
<svg version="1.0" xmlns="http://www.w3.org/2000/svg"
 width="16.000000pt" height="16.000000pt" viewBox="0 0 16.000000 16.000000"
 preserveAspectRatio="xMidYMid meet">
<metadata>
Created by potrace 1.11, written by Peter Selinger 2001-2013
</metadata>
<g transform="translate(0.000000,16.000000) scale(0.002286,-0.002286)"
fill="#000000" stroke="none">
<path d="M1277 6864 c-1 -1 -36 -4 -77 -8 -145 -12 -322 -70 -465 -152 -262
-151 -468 -414 -550 -699 -27 -92 -29 -106 -42 -210 -9 -76 -10 -4483 0 -4587
23 -261 155 -535 351 -728 184 -181 431 -301 685 -334 72 -9 635 -11 2340 -10
1235 0 2270 4 2299 8 471 63 866 401 997 852 14 49 28 105 31 124 2 19 7 46
11 60 10 37 10 4509 0 4609 -26 271 -154 539 -350 729 -193 188 -422 300 -688
338 -42 6 -4535 14 -4542 8z m4483 -188 c25 -4 57 -10 72 -12 15 -2 65 -16
110 -30 400 -126 691 -483 736 -899 3 -33 6 -1052 6 -2265 0 -2064 -2 -2210
-18 -2288 -81 -383 -326 -669 -690 -806 -36 -14 -66 -23 -66 -21 0 3 -12 0
-27 -6 -30 -11 -60 -16 -158 -26 -90 -9 -4357 -9 -4450 0 -198 18 -374 87
-535 208 -227 171 -383 438 -416 709 -4 36 -8 1046 -9 2245 -1 2256 0 2276 39
2418 118 424 498 744 919 774 45 3 83 6 84 7 8 6 4369 -2 4403 -8z"/>
<path d="M1582 5878 c-18 -18 -17 -1353 1 -1365 17 -10 308 -11 330 -1 16 8
17 37 17 401 0 216 4 398 9 405 10 17 41 22 64 10 16 -8 17 -44 17 -534 0
-577 0 -578 60 -609 46 -24 73 -25 453 -26 202 -1 369 -4 372 -8 2 -4 6 -19 9
-34 5 -31 27 -29 -254 -28 -91 0 -172 -4 -180 -9 -22 -13 -22 -1426 -1 -1440
18 -11 326 -8 338 3 4 5 9 79 10 164 1 115 5 158 14 164 7 4 76 8 154 8 200 1
237 11 264 72 15 33 17 98 16 635 -1 590 -1 600 -22 639 -24 46 -44 65 -93 91
-32 16 -69 18 -395 18 -198 1 -366 5 -372 9 -10 6 -13 124 -13 533 0 592 2
577 -71 614 -37 19 -60 22 -198 24 -86 1 -162 5 -168 9 -9 6 -13 42 -13 122 0
62 -3 120 -6 129 -5 14 -30 16 -168 16 -113 0 -166 -4 -174 -12z m1325 -2080
c10 -17 12 -498 2 -519 -11 -22 -44 -30 -65 -14 -16 11 -17 38 -17 270 0 274
0 274 50 275 12 0 25 -6 30 -12z"/>
<path d="M704 5612 c-12 -2 -27 -16 -35 -34 -9 -21 -22 -33 -39 -35 -40 -5
-47 -26 -48 -136 -1 -127 2 -137 37 -137 15 0 32 -5 39 -12 9 -9 12 -95 12
-327 0 -360 2 -370 75 -406 37 -18 62 -19 330 -19 281 0 291 0 337 22 36 18
50 31 58 58 16 47 16 582 0 598 -18 18 -317 18 -335 0 -11 -11 -14 -54 -13
-200 1 -198 0 -204 -48 -204 -12 0 -26 6 -32 13 -7 8 -11 95 -12 234 -1 209 1
223 18 232 12 6 101 10 217 10 109 0 202 4 207 9 10 10 13 209 4 240 -6 16
-16 22 -39 23 -18 0 -111 0 -207 1 -101 0 -180 5 -187 10 -7 6 -13 19 -13 29
0 10 -6 21 -12 25 -12 8 -270 12 -314 6z"/>
<path d="M2608 5609 c-63 -7 -99 -26 -125 -66 -16 -24 -17 -67 -18 -476 0
-510 0 -508 71 -542 35 -17 67 -19 329 -19 320 0 350 4 387 56 19 27 22 46 24
147 1 66 -3 121 -8 129 -8 9 -55 12 -175 12 l-164 0 -15 -35 c-16 -38 -50 -48
-77 -21 -17 17 -12 107 6 118 7 5 102 8 212 7 165 0 201 2 210 14 7 10 10 106
9 289 -1 150 -2 281 -3 290 0 10 -15 33 -32 52 -23 27 -41 37 -77 42 -59 9
-478 11 -554 3z m293 -286 c14 -14 19 -103 8 -125 -13 -24 -67 -24 -76 -1 -14
36 -7 115 11 128 20 15 41 14 57 -2z"/>
<path d="M1581 4077 c-8 -8 -11 -159 -11 -504 0 -421 2 -498 15 -523 32 -63
71 -70 379 -70 298 1 310 1 354 24 63 33 62 24 62 569 0 384 -3 497 -12 505
-18 14 -318 14 -335 0 -10 -8 -13 -91 -13 -404 0 -344 -2 -395 -16 -408 -18
-19 -16 -19 -48 -6 l-26 10 0 399 c0 313 -3 401 -13 409 -18 15 -321 14 -336
-1z"/>
<path d="M3380 4080 c-13 -8 -15 -99 -16 -716 0 -562 2 -709 12 -719 19 -18
313 -18 334 0 12 11 15 42 14 160 0 110 3 150 13 160 9 10 50 14 150 15 200 1
232 9 269 66 15 22 17 73 17 482 0 512 1 503 -70 538 -35 17 -69 19 -373 21
-193 1 -341 -2 -350 -7z m414 -276 c14 -5 16 -39 16 -270 0 -255 -1 -264 -20
-274 -26 -14 -60 -4 -62 18 -6 70 -3 501 4 515 9 17 34 22 62 11z"/>
<path d="M4384 4082 c-30 -2 -53 -12 -80 -36 l-39 -34 -3 -460 c-3 -526 -4
-518 70 -552 40 -18 64 -19 343 -17 265 2 304 4 332 20 52 28 63 61 63 191 0
100 -2 116 -17 124 -22 10 -314 9 -331 -2 -7 -4 -12 -16 -12 -26 0 -11 -10
-25 -22 -31 -13 -7 -23 -12 -23 -12 0 0 -10 5 -22 12 -19 10 -23 20 -23 59 0
77 -7 75 223 76 134 1 210 5 217 12 7 7 10 102 8 307 l-3 297 -30 30 c-24 23
-45 33 -90 40 -53 9 -454 10 -561 2z m314 -284 c7 -7 12 -38 12 -70 0 -53 -2
-60 -26 -70 -41 -19 -58 -1 -62 66 -2 34 2 64 9 72 14 17 51 18 67 2z"/>
<path d="M5169 4074 c-9 -11 -12 -139 -13 -577 -1 -309 -5 -568 -9 -574 -6
-10 -61 -13 -217 -13 -208 0 -209 0 -216 -22 -10 -34 -5 -229 7 -244 7 -9 92
-12 352 -10 378 2 387 3 426 67 17 28 19 58 19 365 0 183 3 338 7 344 9 14 62
12 72 -2 4 -7 8 -212 9 -455 1 -417 0 -444 -18 -460 -16 -14 -18 -33 -18 -139
0 -107 2 -124 18 -133 16 -9 17 -36 18 -340 l1 -330 23 -35 c40 -57 68 -61
390 -60 313 0 340 5 377 60 16 25 18 56 20 316 1 229 -2 291 -12 302 -18 18
-305 20 -329 3 -14 -10 -16 -39 -17 -191 0 -99 -5 -188 -10 -198 -13 -24 -64
-24 -74 -1 -3 10 -6 115 -5 233 0 181 3 217 16 226 10 8 80 12 210 12 128 0
199 4 208 11 20 17 20 235 0 252 -10 8 -75 12 -214 12 -145 0 -203 4 -211 13
-6 7 -9 178 -9 476 0 440 -4 528 -28 528 -4 0 -14 5 -22 10 -13 8 -10 14 15
34 l30 24 3 199 c3 224 -3 250 -68 288 -33 19 -54 20 -376 22 -296 2 -344 1
-355 -13z m429 -281 c5 -10 9 -41 10 -70 1 -56 -15 -85 -46 -80 -36 6 -42 18
-42 87 0 45 4 70 13 73 26 11 57 6 65 -10z"/>
<path d="M3829 2832 c-17 -12 -19 -27 -19 -132 0 -84 -4 -121 -12 -127 -7 -4
-67 -8 -133 -9 -154 -1 -224 -11 -253 -34 -48 -40 -49 -54 -48 -535 1 -501 -1
-485 69 -522 28 -15 71 -17 370 -19 252 -1 341 2 354 11 15 11 17 68 17 684 0
420 -4 675 -10 681 -16 16 -313 18 -335 2z m-38 -552 c18 -10 19 -24 19 -274
0 -231 -2 -265 -16 -270 -28 -11 -53 -6 -62 12 -7 13 -10 467 -3 519 0 6 9 14
19 16 9 3 18 5 20 6 2 0 12 -4 23 -9z"/>
<path d="M4287 2561 c-6 -2 -15 -9 -19 -15 -10 -15 -10 -228 0 -244 6 -9 51
-13 169 -13 89 -1 166 2 172 5 16 10 15 252 -1 262 -12 8 -298 12 -321 5z"/>
<path d="M4744 2562 c-10 -2 -23 -8 -27 -12 -5 -4 -9 -248 -8 -541 0 -460 2
-535 15 -545 17 -12 314 -13 334 -1 9 6 12 60 12 211 0 226 4 239 58 220 l27
-9 1 -337 c1 -314 3 -339 21 -370 36 -62 42 -63 421 -66 253 -2 347 0 358 9
19 16 20 244 2 256 -7 4 -104 8 -215 8 -130 1 -207 5 -214 12 -7 7 -10 104
-11 284 l0 273 -30 28 -30 28 29 24 28 24 0 209 c0 309 20 295 -436 297 -173
0 -324 -1 -335 -2z m399 -289 c11 -13 15 -36 14 -77 -2 -66 -17 -83 -60 -72
-26 6 -27 9 -27 77 0 63 2 71 23 79 31 12 32 12 50 -7z"/>
<path d="M4277 2208 c-15 -8 -17 -45 -17 -373 0 -280 3 -366 13 -372 17 -11
308 -12 330 -1 16 8 17 36 17 373 0 352 -1 365 -20 375 -24 13 -300 11 -323
-2z"/>
</g>
</svg>
