<svg id="d110c02e-1c67-4e97-b2e7-4e86ad3b7816" data-name="Слой 1" xmlns="http://www.w3.org/2000/svg" xmlns:xlink="http://www.w3.org/1999/xlink" width="114" height="114" viewBox="0 0 114 114">
  <defs>
    <style>
      .\36 d9a9abe-7f5b-45c8-8d82-01e9dfd891e2 {
        fill: url(#00e1bf68-882a-4f5f-a7c6-cde59382562e);
      }

      .d16690b7-e87a-4699-a2ee-3a80e885fa75 {
        fill: url(#9ddb5d92-41cc-44d3-9c7e-64ab1965f274);
      }

      .aed7fc02-a97d-45ed-b841-dcd3c64e62a4 {
        fill: url(#7c2ae9f5-b25a-48e3-a94b-22a6ff7ef12c);
      }

      .\31 e0cda50-3bb8-4fb8-9003-3a970fa02bb7, .ebf755ea-1ed1-4fef-a9cf-a01e856a49f9 {
        fill: none;
        stroke-linecap: round;
        stroke-linejoin: round;
        stroke-width: 0.5px;
      }

      .ebf755ea-1ed1-4fef-a9cf-a01e856a49f9 {
        stroke: url(#38c25f01-7ebd-4be1-bb58-5bfe0a097406);
      }

      .\31 e0cda50-3bb8-4fb8-9003-3a970fa02bb7 {
        stroke: url(#12c3d750-b549-44c9-9caf-fa4b7a00a10c);
      }

      .\36 665583b-1bc2-4a3e-bbc1-2c3435ffcae0 {
        fill: url(#c0a62ee0-7156-4c62-af81-919baeacbca8);
      }
    </style>
    <radialGradient id="00e1bf68-882a-4f5f-a7c6-cde59382562e" data-name="Безымянный градиент 93" cx="57" cy="57" r="57" gradientUnits="userSpaceOnUse">
      <stop offset="0" stop-color="#386539" stop-opacity="0"/>
      <stop offset="0.34" stop-color="#386539" stop-opacity="0.02"/>
      <stop offset="0.48" stop-color="#386539" stop-opacity="0.09"/>
      <stop offset="0.59" stop-color="#396539" stop-opacity="0.21"/>
      <stop offset="0.68" stop-color="#396539" stop-opacity="0.39"/>
      <stop offset="0.76" stop-color="#3a653a" stop-opacity="0.62"/>
      <stop offset="0.83" stop-color="#3b653a" stop-opacity="0.89"/>
      <stop offset="0.85" stop-color="#3b653a"/>
      <stop offset="0.92" stop-color="#3a6439" stop-opacity="0.99"/>
      <stop offset="0.95" stop-color="#385e37" stop-opacity="0.95"/>
      <stop offset="0.96" stop-color="#355534" stop-opacity="0.88"/>
      <stop offset="0.98" stop-color="#30472f" stop-opacity="0.78"/>
      <stop offset="0.99" stop-color="#293628" stop-opacity="0.65"/>
      <stop offset="1" stop-color="#222221" stop-opacity="0.5"/>
    </radialGradient>
    <radialGradient id="9ddb5d92-41cc-44d3-9c7e-64ab1965f274" data-name="Безымянный градиент 129" cx="57" cy="57" r="57" gradientUnits="userSpaceOnUse">
      <stop offset="0" stop-color="#ffed00" stop-opacity="0.7"/>
      <stop offset="0.4" stop-color="#fbea01" stop-opacity="0.71"/>
      <stop offset="0.56" stop-color="#efdf06" stop-opacity="0.73"/>
      <stop offset="0.69" stop-color="#dacb0f" stop-opacity="0.76"/>
      <stop offset="0.79" stop-color="#bbb01b" stop-opacity="0.81"/>
      <stop offset="0.88" stop-color="#938c2b" stop-opacity="0.88"/>
      <stop offset="0.96" stop-color="#63613e" stop-opacity="0.96"/>
      <stop offset="1" stop-color="#494949"/>
    </radialGradient>
    <linearGradient id="7c2ae9f5-b25a-48e3-a94b-22a6ff7ef12c" data-name="Безымянный градиент 132" y1="57" x2="114" y2="57" gradientUnits="userSpaceOnUse">
      <stop offset="0" stop-color="#222221" stop-opacity="0.4"/>
      <stop offset="1" stop-color="#222221"/>
    </linearGradient>
    <radialGradient id="38c25f01-7ebd-4be1-bb58-5bfe0a097406" data-name="Безымянный градиент 103" cx="29.23" cy="57.21" r="25.34" gradientUnits="userSpaceOnUse">
      <stop offset="0" stop-color="#3b653a"/>
      <stop offset="0.47" stop-color="#3a6439" stop-opacity="0.99"/>
      <stop offset="0.63" stop-color="#385e37" stop-opacity="0.95"/>
      <stop offset="0.75" stop-color="#355534" stop-opacity="0.88"/>
      <stop offset="0.85" stop-color="#30472f" stop-opacity="0.78"/>
      <stop offset="0.93" stop-color="#293628" stop-opacity="0.65"/>
      <stop offset="1" stop-color="#222221" stop-opacity="0.5"/>
    </radialGradient>
    <radialGradient id="12c3d750-b549-44c9-9caf-fa4b7a00a10c" cx="79.25" cy="57" r="28.58" xlink:href="#38c25f01-7ebd-4be1-bb58-5bfe0a097406"/>
    <radialGradient id="c0a62ee0-7156-4c62-af81-919baeacbca8" data-name="Безымянный градиент 147" cx="57" cy="57" r="57" gradientUnits="userSpaceOnUse">
      <stop offset="0.98" stop-color="#222221" stop-opacity="0"/>
      <stop offset="0.98" stop-color="#222221" stop-opacity="0.25"/>
      <stop offset="0.99" stop-color="#222221" stop-opacity="0.44"/>
      <stop offset="1" stop-color="#222221" stop-opacity="0.5"/>
    </radialGradient>
  </defs>
  <title>TUD114na</title>
  <rect class="6d9a9abe-7f5b-45c8-8d82-01e9dfd891e2" width="114" height="114"/>
  <rect class="d16690b7-e87a-4699-a2ee-3a80e885fa75" width="114" height="114"/>
  <path class="aed7fc02-a97d-45ed-b841-dcd3c64e62a4" d="M85.1,0H28.9A28.9,28.9,0,0,0,0,28.9V85.1A28.9,28.9,0,0,0,28.9,114H85.1A28.9,28.9,0,0,0,114,85.1V28.9A28.9,28.9,0,0,0,85.1,0ZM34.7,76.7a2.5,2.5,0,0,1-2.5,2.5h-6a2.5,2.5,0,0,1-2.5-2.5V45.9H1.4c7,0,11.1-2.8,11.1-10.7H57c0,7.9-4.1,10.7-11.1,10.7H34.7Zm55.6,2.5H69.6A19.3,19.3,0,0,0,79.9,68.1H90.4a11.1,11.1,0,0,0,0-22.3H79.3V62.2a16.9,16.9,0,0,1-15.6,17H61.6a16.9,16.9,0,0,1-15.6-17v-15h1.4A9.7,9.7,0,0,1,57.1,57v5.6a5.6,5.6,0,0,0,5.7,5.6,5.7,5.7,0,0,0,5.4-5.8V37.3a2.5,2.5,0,0,1,2.5-2.5H89.9c11.4,0,22.6,9.2,22.7,20.6C112.6,68.3,103.2,79.3,90.4,79.3Z" transform="translate(0 0)"/>
  <g>
    <path class="ebf755ea-1ed1-4fef-a9cf-a01e856a49f9" d="M57,35.2H12.6c0,7.9-4.2,10.7-11.1,10.7H23.7V76.7a2.5,2.5,0,0,0,2.5,2.5h6a2.5,2.5,0,0,0,2.5-2.5V45.9H45.9C52.9,45.9,57,43.1,57,35.2Z" transform="translate(0 0)"/>
    <path class="1e0cda50-3bb8-4fb8-9003-3a970fa02bb7" d="M89.9,34.7H70.7a2.5,2.5,0,0,0-2.5,2.5V62.3a5.7,5.7,0,0,1-5.4,5.8,5.6,5.6,0,0,1-5.7-5.6V57a9.7,9.7,0,0,0-9.7-9.7H45.9v15a16.9,16.9,0,0,0,15.6,17h2.1a16.9,16.9,0,0,0,15.6-17V45.9H90.4a11.1,11.1,0,0,1,0,22.3H79.9A19.3,19.3,0,0,1,69.6,79.3H90.4c12.8,0,22.3-10.9,22.2-23.9C112.5,44,101.3,34.7,89.9,34.7Z" transform="translate(0 0)"/>
  </g>
  <path class="6665583b-1bc2-4a3e-bbc1-2c3435ffcae0" d="M85.1,0H28.9A28.9,28.9,0,0,0,0,28.9V85.1A28.9,28.9,0,0,0,28.9,114H85.1A28.9,28.9,0,0,0,114,85.1V28.9A28.9,28.9,0,0,0,85.1,0ZM34.7,76.7a2.5,2.5,0,0,1-2.5,2.5h-6a2.5,2.5,0,0,1-2.5-2.5V45.9H1.4c7,0,11.1-2.8,11.1-10.7H57c0,7.9-4.1,10.7-11.1,10.7H34.7Zm55.6,2.5H69.6A19.3,19.3,0,0,0,79.9,68.1H90.4a11.1,11.1,0,0,0,0-22.3H79.3V62.2a16.9,16.9,0,0,1-15.6,17H61.6a16.9,16.9,0,0,1-15.6-17v-15h1.4A9.7,9.7,0,0,1,57.1,57v5.6a5.6,5.6,0,0,0,5.7,5.6,5.7,5.7,0,0,0,5.4-5.8V37.3a2.5,2.5,0,0,1,2.5-2.5H89.9c11.4,0,22.6,9.2,22.7,20.6C112.6,68.3,103.2,79.3,90.4,79.3Z" transform="translate(0 0)"/>
</svg>
